<svg version="1" xmlns="http://www.w3.org/2000/svg" width="933.333" height="933.333" viewBox="0 0 700.000000 700.000000"><path d="M247.8 152.1c-1 .6-1.3 170.3-.4 179.4 2.4 23.3 9.7 39.5 24.6 54.6 15 15.2 30.7 22.4 57.4 26.5 7.7 1.2 27.3 1 37.6-.3 30.7-3.8 54.1-16.9 68.8-38.2 2.2-3.2 5-8.1 6.2-10.7 2.6-5.9 7-18.4 6.5-18.4-.3 0 0-1.1.4-2.4 2.1-5.3 2.4-20.1 2.5-103 .1-64.3-.2-87-1-87.3-.7-.2-10.2-.5-21.2-.6l-20.1-.2v87c-.1 47.8-.3 88.3-.6 90-3.2 16.9-7.2 25.9-15 33.8-10.4 10.5-23.9 15-45 14.9-32.1 0-49.5-11.9-57.1-39.2-1.7-6-1.8-13.2-2.2-96-.1-49.2-.5-89.6-.7-89.8-.6-.6-39.7-.7-40.7-.1zM217.4 437.2l.1 8.3 14 .2c7.7.1 15.6.2 17.5.2l3.5.1v50.6c-.1 36 .2 50.7 1 51 .6.3 5 .6 9.7.7l8.6.2v-50.8c0-28 .3-51.1.6-51.4.3-.3 8.2-.6 17.6-.6h17V429h-89.6v8.2zM327.5 430.7c.2 1 1.6 6.3 3 11.8 1.5 5.5 2.8 10.7 3 11.5.2.8 1.8 6.7 3.4 13 1.7 6.3 5.8 22.1 9.2 35 7.8 30.3 10.9 42.1 11.5 44.3.5 1.6 1.7 1.7 11.1 1.5l10.6-.3 1.8-6c1-3.3 3.9-13.7 6.4-23 2.6-9.4 6.6-24 9-32.5 2.4-8.5 5.2-19.4 6.2-24.2l1.7-8.7 4.8 18.7c2.6 10.3 5 19.4 5.2 20.2.3.8 3.9 13.8 8.2 28.8l7.8 27.2h21.4l1.7-6.8c.9-3.7 1.9-7.6 2.1-8.6.2-1 .8-3.3 1.4-5.1.6-1.8 1.2-4.1 1.4-5.1.3-1 2.9-11.6 6-23.4 3.1-11.8 8.4-32.1 11.7-45 3.3-12.9 6.3-23.8 6.5-24.2.3-.5-4-.8-9.5-.8h-10l-1 3.7c-1 3.8-11.2 45.3-17.1 69.8-1.7 7.1-3.4 15.1-3.7 17.7-.6 5-2.2 6.6-2.4 2.3-.1-1.4-.2-2.8-.3-3.3-.1-.4-.6-2.7-1-5.2-1.4-7.8-17.6-66.6-23.1-83.8-.3-.8-3.2-1.2-9.9-1.2h-9.4l-1.1 3.2c-5.3 16.9-20.8 74.8-22.7 85.1-1.9 10.1-1.6 10.3-3.9-2.3-.3-1.9-1.1-5.5-1.6-8-.6-2.5-1.2-5.2-1.4-6-.2-.8-2.4-10.1-5-20.5-2.6-10.5-4.8-19.7-5-20.5-.2-.8-1.9-8-3.9-16-2-7.9-3.6-14.6-3.6-14.7 0-.2-4.5-.3-9.9-.3-9 0-9.9.2-9.6 1.7z"/></svg>